<svg xmlns="http://www.w3.org/2000/svg" xmlns:xlink="http://www.w3.org/1999/xlink" width="500" zoomAndPan="magnify" viewBox="0 0 375 374.999991" height="500" preserveAspectRatio="xMidYMid meet" version="1.0"><defs><g/><clipPath id="c9425ddeb2"><path d="M 136.007812 154.707031 L 199.757812 154.707031 L 199.757812 219.957031 L 136.007812 219.957031 Z M 136.007812 154.707031 " clip-rule="nonzero"/></clipPath><clipPath id="d7aa27ed40"><path d="M 187.058594 154.707031 L 352.808594 154.707031 L 352.808594 158.457031 L 187.058594 158.457031 Z M 187.058594 154.707031 " clip-rule="nonzero"/></clipPath><clipPath id="3b5bf686ab"><path d="M 3 216.53125 L 158.175781 216.53125 L 158.175781 220.28125 L 3 220.28125 Z M 3 216.53125 " clip-rule="nonzero"/></clipPath></defs><rect x="-37.5" width="450" fill="#ffffff" y="-37.499999" height="449.999989" fill-opacity="1"/><rect x="-37.5" width="450" fill="#fbfbfc" y="-37.499999" height="449.999989" fill-opacity="1"/><g fill="#0000ff" fill-opacity="1"><g transform="translate(16.170146, 201.326364)"><g><path d="M 13.671875 0.59375 C 10.898438 0.59375 8.242188 0.226562 5.703125 -0.5 C 3.171875 -1.238281 1.132812 -2.171875 -0.40625 -3.296875 L 2.90625 -9.5625 C 4.507812 -8.394531 6.3125 -7.492188 8.3125 -6.859375 C 10.3125 -6.222656 12.363281 -5.90625 14.46875 -5.90625 C 16.707031 -5.90625 18.476562 -6.269531 19.78125 -7 C 21.082031 -7.738281 21.734375 -8.742188 21.734375 -10.015625 C 21.734375 -11.046875 21.210938 -11.835938 20.171875 -12.390625 C 19.140625 -12.941406 17.488281 -13.535156 15.21875 -14.171875 C 12.945312 -14.835938 11.09375 -15.476562 9.65625 -16.09375 C 8.226562 -16.707031 6.988281 -17.628906 5.9375 -18.859375 C 4.882812 -20.097656 4.359375 -21.738281 4.359375 -23.78125 C 4.359375 -26.144531 5.015625 -28.226562 6.328125 -30.03125 C 7.648438 -31.832031 9.519531 -33.21875 11.9375 -34.1875 C 14.351562 -35.15625 17.164062 -35.640625 20.375 -35.640625 C 22.75 -35.640625 24.984375 -35.378906 27.078125 -34.859375 C 29.179688 -34.347656 30.984375 -33.609375 32.484375 -32.640625 L 29.4375 -26.4375 C 28.132812 -27.332031 26.664062 -28.003906 25.03125 -28.453125 C 23.394531 -28.910156 21.691406 -29.140625 19.921875 -29.140625 C 17.617188 -29.140625 15.800781 -28.738281 14.46875 -27.9375 C 13.132812 -27.132812 12.46875 -26.097656 12.46875 -24.828125 C 12.46875 -24.054688 12.75 -23.410156 13.3125 -22.890625 C 13.882812 -22.378906 14.601562 -21.960938 15.46875 -21.640625 C 16.332031 -21.328125 17.550781 -20.957031 19.125 -20.53125 C 21.363281 -19.925781 23.195312 -19.3125 24.625 -18.6875 C 26.0625 -18.070312 27.289062 -17.171875 28.3125 -15.984375 C 29.332031 -14.804688 29.84375 -13.25 29.84375 -11.3125 C 29.84375 -8.90625 29.171875 -6.8125 27.828125 -5.03125 C 26.492188 -3.25 24.609375 -1.863281 22.171875 -0.875 C 19.734375 0.101562 16.898438 0.59375 13.671875 0.59375 Z M 13.671875 0.59375 "/></g></g></g><g fill="#000000" fill-opacity="1"><g transform="translate(44.608199, 201.326364)"><g><path d="M 33.4375 -26.9375 L 28.078125 0 L 20.671875 0 L 21.21875 -2.90625 C 20.050781 -1.800781 18.71875 -0.972656 17.21875 -0.421875 C 15.71875 0.128906 14.132812 0.40625 12.46875 0.40625 C 9.53125 0.40625 7.179688 -0.394531 5.421875 -2 C 3.671875 -3.601562 2.796875 -5.859375 2.796875 -8.765625 C 2.796875 -9.859375 2.914062 -10.941406 3.15625 -12.015625 L 6.109375 -26.9375 L 13.921875 -26.9375 L 11.0625 -12.515625 C 10.925781 -11.878906 10.859375 -11.226562 10.859375 -10.5625 C 10.859375 -7.757812 12.363281 -6.359375 15.375 -6.359375 C 17.34375 -6.359375 18.96875 -6.929688 20.25 -8.078125 C 21.53125 -9.234375 22.40625 -10.960938 22.875 -13.265625 L 25.625 -26.9375 Z M 33.4375 -26.9375 "/></g></g></g><g fill="#000000" fill-opacity="1"><g transform="translate(75.492518, 201.326364)"><g><path d="M 21.421875 -27.328125 C 23.523438 -27.328125 25.46875 -26.84375 27.25 -25.875 C 29.039062 -24.914062 30.460938 -23.523438 31.515625 -21.703125 C 32.566406 -19.878906 33.09375 -17.734375 33.09375 -15.265625 C 33.09375 -12.296875 32.429688 -9.617188 31.109375 -7.234375 C 29.796875 -4.847656 28.003906 -2.976562 25.734375 -1.625 C 23.460938 -0.269531 20.941406 0.40625 18.171875 0.40625 C 14.066406 0.40625 11.164062 -0.929688 9.46875 -3.609375 L 6.8125 9.71875 L -1 9.71875 L 6.3125 -26.9375 L 13.71875 -26.9375 L 13.171875 -24.28125 C 15.398438 -26.3125 18.148438 -27.328125 21.421875 -27.328125 Z M 17.265625 -6.0625 C 18.804688 -6.0625 20.175781 -6.4375 21.375 -7.1875 C 22.570312 -7.9375 23.503906 -8.976562 24.171875 -10.3125 C 24.847656 -11.644531 25.1875 -13.179688 25.1875 -14.921875 C 25.1875 -16.753906 24.640625 -18.203125 23.546875 -19.265625 C 22.460938 -20.335938 20.957031 -20.875 19.03125 -20.875 C 17.519531 -20.875 16.164062 -20.5 14.96875 -19.75 C 13.769531 -19 12.832031 -17.957031 12.15625 -16.625 C 11.488281 -15.289062 11.15625 -13.753906 11.15625 -12.015625 C 11.15625 -10.179688 11.691406 -8.726562 12.765625 -7.65625 C 13.835938 -6.59375 15.335938 -6.0625 17.265625 -6.0625 Z M 17.265625 -6.0625 "/></g></g></g><g fill="#000000" fill-opacity="1"><g transform="translate(106.526995, 201.326364)"><g><path d="M 30.1875 -15.46875 C 30.1875 -14.226562 30.035156 -12.859375 29.734375 -11.359375 L 9.109375 -11.359375 C 9.378906 -7.691406 11.695312 -5.859375 16.0625 -5.859375 C 17.4375 -5.859375 18.75 -6.070312 20 -6.5 C 21.25 -6.9375 22.34375 -7.554688 23.28125 -8.359375 L 26.53125 -3.203125 C 25.03125 -2.003906 23.3125 -1.101562 21.375 -0.5 C 19.4375 0.101562 17.398438 0.40625 15.265625 0.40625 C 12.492188 0.40625 10.066406 -0.0820312 7.984375 -1.0625 C 5.898438 -2.050781 4.296875 -3.460938 3.171875 -5.296875 C 2.054688 -7.140625 1.5 -9.265625 1.5 -11.671875 C 1.5 -14.640625 2.175781 -17.316406 3.53125 -19.703125 C 4.882812 -22.085938 6.757812 -23.953125 9.15625 -25.296875 C 11.5625 -26.648438 14.300781 -27.328125 17.375 -27.328125 C 19.976562 -27.328125 22.238281 -26.84375 24.15625 -25.875 C 26.070312 -24.914062 27.554688 -23.535156 28.609375 -21.734375 C 29.660156 -19.929688 30.1875 -17.84375 30.1875 -15.46875 Z M 17.015625 -21.484375 C 15.179688 -21.484375 13.628906 -20.988281 12.359375 -20 C 11.097656 -19.007812 10.195312 -17.648438 9.65625 -15.921875 L 23.03125 -15.921875 C 23.03125 -17.648438 22.488281 -19.007812 21.40625 -20 C 20.320312 -20.988281 18.859375 -21.484375 17.015625 -21.484375 Z M 17.015625 -21.484375 "/></g></g></g><g fill="#000000" fill-opacity="1"><g transform="translate(134.457992, 201.326364)"><g><path d="M 13.0625 -23.734375 C 14.226562 -24.992188 15.640625 -25.90625 17.296875 -26.46875 C 18.953125 -27.039062 20.894531 -27.328125 23.125 -27.328125 L 21.734375 -20.125 C 20.796875 -20.1875 20.191406 -20.21875 19.921875 -20.21875 C 17.554688 -20.21875 15.660156 -19.632812 14.234375 -18.46875 C 12.816406 -17.300781 11.859375 -15.484375 11.359375 -13.015625 L 8.765625 0 L 0.953125 0 L 6.3125 -26.9375 L 13.71875 -26.9375 Z M 13.0625 -23.734375 "/></g></g></g><g fill="#000000" fill-opacity="1"><g transform="translate(152.537871, 201.326364)"><g/></g></g><g fill="#000000" fill-opacity="1"><g transform="translate(163.199482, 201.326364)"><g/></g></g><g fill="#000000" fill-opacity="1"><g transform="translate(173.861093, 201.326364)"><g/></g></g><g fill="#000000" fill-opacity="1"><g transform="translate(184.522703, 201.326364)"><g/></g></g><g fill="#0000ff" fill-opacity="1"><g transform="translate(195.187617, 201.326364)"><g><path d="M 19.875 0.59375 C 16.375 0.59375 13.3125 -0.0351562 10.6875 -1.296875 C 8.070312 -2.566406 6.0625 -4.351562 4.65625 -6.65625 C 3.25 -8.957031 2.546875 -11.613281 2.546875 -14.625 C 2.546875 -18.59375 3.457031 -22.171875 5.28125 -25.359375 C 7.101562 -28.546875 9.664062 -31.054688 12.96875 -32.890625 C 16.269531 -34.722656 20.054688 -35.640625 24.328125 -35.640625 C 27.460938 -35.640625 30.234375 -35.101562 32.640625 -34.03125 C 35.046875 -32.96875 36.863281 -31.4375 38.09375 -29.4375 L 32.234375 -24.625 C 30.367188 -27.363281 27.550781 -28.734375 23.78125 -28.734375 C 21.207031 -28.734375 18.9375 -28.128906 16.96875 -26.921875 C 15 -25.722656 13.472656 -24.085938 12.390625 -22.015625 C 11.304688 -19.953125 10.765625 -17.65625 10.765625 -15.125 C 10.765625 -12.414062 11.625 -10.269531 13.34375 -8.6875 C 15.0625 -7.101562 17.472656 -6.3125 20.578125 -6.3125 C 24.273438 -6.3125 27.378906 -7.660156 29.890625 -10.359375 L 34.6875 -5.453125 C 31.21875 -1.421875 26.28125 0.59375 19.875 0.59375 Z M 19.875 0.59375 "/></g></g></g><g fill="#000000" fill-opacity="1"><g transform="translate(228.377573, 201.326364)"><g><path d="M 13.0625 -23.734375 C 14.226562 -24.992188 15.640625 -25.90625 17.296875 -26.46875 C 18.953125 -27.039062 20.894531 -27.328125 23.125 -27.328125 L 21.734375 -20.125 C 20.796875 -20.1875 20.191406 -20.21875 19.921875 -20.21875 C 17.554688 -20.21875 15.660156 -19.632812 14.234375 -18.46875 C 12.816406 -17.300781 11.859375 -15.484375 11.359375 -13.015625 L 8.765625 0 L 0.953125 0 L 6.3125 -26.9375 L 13.71875 -26.9375 Z M 13.0625 -23.734375 "/></g></g></g><g fill="#000000" fill-opacity="1"><g transform="translate(246.44751, 201.326364)"><g><path d="M 30.1875 -15.46875 C 30.1875 -14.226562 30.035156 -12.859375 29.734375 -11.359375 L 9.109375 -11.359375 C 9.378906 -7.691406 11.695312 -5.859375 16.0625 -5.859375 C 17.4375 -5.859375 18.75 -6.070312 20 -6.5 C 21.25 -6.9375 22.34375 -7.554688 23.28125 -8.359375 L 26.53125 -3.203125 C 25.03125 -2.003906 23.3125 -1.101562 21.375 -0.5 C 19.4375 0.101562 17.398438 0.40625 15.265625 0.40625 C 12.492188 0.40625 10.066406 -0.0820312 7.984375 -1.0625 C 5.898438 -2.050781 4.296875 -3.460938 3.171875 -5.296875 C 2.054688 -7.140625 1.5 -9.265625 1.5 -11.671875 C 1.5 -14.640625 2.175781 -17.316406 3.53125 -19.703125 C 4.882812 -22.085938 6.757812 -23.953125 9.15625 -25.296875 C 11.5625 -26.648438 14.300781 -27.328125 17.375 -27.328125 C 19.976562 -27.328125 22.238281 -26.84375 24.15625 -25.875 C 26.070312 -24.914062 27.554688 -23.535156 28.609375 -21.734375 C 29.660156 -19.929688 30.1875 -17.84375 30.1875 -15.46875 Z M 17.015625 -21.484375 C 15.179688 -21.484375 13.628906 -20.988281 12.359375 -20 C 11.097656 -19.007812 10.195312 -17.648438 9.65625 -15.921875 L 23.03125 -15.921875 C 23.03125 -17.648438 22.488281 -19.007812 21.40625 -20 C 20.320312 -20.988281 18.859375 -21.484375 17.015625 -21.484375 Z M 17.015625 -21.484375 "/></g></g></g><g fill="#000000" fill-opacity="1"><g transform="translate(274.378506, 201.326364)"><g><path d="M 33.640625 -26.9375 L 28.28125 0 L 20.875 0 L 21.375 -2.65625 C 19.132812 -0.613281 16.378906 0.40625 13.109375 0.40625 C 11.015625 0.40625 9.082031 -0.078125 7.3125 -1.046875 C 5.539062 -2.015625 4.128906 -3.40625 3.078125 -5.21875 C 2.023438 -7.039062 1.5 -9.191406 1.5 -11.671875 C 1.5 -14.640625 2.15625 -17.316406 3.46875 -19.703125 C 4.789062 -22.085938 6.585938 -23.953125 8.859375 -25.296875 C 11.128906 -26.648438 13.632812 -27.328125 16.375 -27.328125 C 20.507812 -27.328125 23.425781 -25.976562 25.125 -23.28125 L 25.828125 -26.9375 Z M 15.515625 -6.0625 C 17.054688 -6.0625 18.425781 -6.4375 19.625 -7.1875 C 20.820312 -7.9375 21.753906 -8.976562 22.421875 -10.3125 C 23.085938 -11.644531 23.421875 -13.179688 23.421875 -14.921875 C 23.421875 -16.753906 22.878906 -18.203125 21.796875 -19.265625 C 20.710938 -20.335938 19.203125 -20.875 17.265625 -20.875 C 15.734375 -20.875 14.363281 -20.5 13.15625 -19.75 C 11.957031 -19 11.023438 -17.957031 10.359375 -16.625 C 9.691406 -15.289062 9.359375 -13.753906 9.359375 -12.015625 C 9.359375 -10.179688 9.898438 -8.726562 10.984375 -7.65625 C 12.066406 -6.59375 13.578125 -6.0625 15.515625 -6.0625 Z M 15.515625 -6.0625 "/></g></g></g><g fill="#000000" fill-opacity="1"><g transform="translate(305.412979, 201.326364)"><g><path d="M 40.09375 -27.328125 C 43.03125 -27.328125 45.367188 -26.535156 47.109375 -24.953125 C 48.847656 -23.367188 49.71875 -21.125 49.71875 -18.21875 C 49.71875 -17.15625 49.597656 -16.054688 49.359375 -14.921875 L 46.40625 0 L 38.59375 0 L 41.453125 -14.375 C 41.585938 -15.039062 41.65625 -15.722656 41.65625 -16.421875 C 41.65625 -17.785156 41.296875 -18.816406 40.578125 -19.515625 C 39.859375 -20.222656 38.796875 -20.578125 37.390625 -20.578125 C 33.617188 -20.578125 31.269531 -18.320312 30.34375 -13.8125 L 27.578125 0 L 19.78125 0 L 22.625 -14.375 C 22.757812 -15.039062 22.828125 -15.707031 22.828125 -16.375 C 22.828125 -17.738281 22.46875 -18.78125 21.75 -19.5 C 21.03125 -20.21875 19.972656 -20.578125 18.578125 -20.578125 C 14.804688 -20.578125 12.4375 -18.289062 11.46875 -13.71875 L 8.765625 0 L 0.953125 0 L 6.3125 -26.9375 L 13.71875 -26.9375 L 13.109375 -24.125 C 15.453125 -26.257812 18.273438 -27.328125 21.578125 -27.328125 C 23.441406 -27.328125 25.097656 -26.953125 26.546875 -26.203125 C 28.003906 -25.453125 29.101562 -24.359375 29.84375 -22.921875 C 31.144531 -24.359375 32.660156 -25.453125 34.390625 -26.203125 C 36.128906 -26.953125 38.03125 -27.328125 40.09375 -27.328125 Z M 40.09375 -27.328125 "/></g></g></g><g clip-path="url(#c9425ddeb2)"><path fill="#0000ff" d="M 181.785156 154.398438 L 199.878906 150.863281 L 181.113281 176.214844 L 193.054688 173.777344 L 136.019531 249.582031 L 174.042969 187.425781 L 159.207031 191.082031 Z M 181.785156 154.398438 " fill-opacity="1" fill-rule="nonzero"/></g><g clip-path="url(#d7aa27ed40)"><path fill="#0000ff" d="M 189.054688 154.714844 L 353.070312 156.675781 L 189.054688 158.636719 C 187.96875 158.648438 187.082031 157.78125 187.070312 156.699219 C 187.058594 155.613281 187.925781 154.726562 189.007812 154.714844 C 189.015625 154.714844 189.039062 154.714844 189.054688 154.714844 Z M 189.054688 154.714844 " fill-opacity="1" fill-rule="nonzero"/></g><g clip-path="url(#3b5bf686ab)"><path fill="#0000ff" d="M 156.316406 220.277344 L 3.273438 218.449219 L 156.316406 216.617188 C 157.324219 216.605469 158.152344 217.414062 158.164062 218.425781 C 158.175781 219.4375 157.367188 220.265625 156.355469 220.277344 C 156.347656 220.277344 156.328125 220.277344 156.316406 220.277344 Z M 156.316406 220.277344 " fill-opacity="1" fill-rule="nonzero"/></g></svg>